<svg width="132" height="24" viewBox="0 0 132 24" fill="none" xmlns="http://www.w3.org/2000/svg">
<g clip-path="url(#clip0_4694_16153)">
<path d="M0 18.276V1.2H3.53982V18.276H0Z" fill="#52575C"/>
<path d="M6.48926 18.276V5.724H9.7459L9.87569 6.924C10.4659 6.48981 11.1134 6.14239 11.799 5.892C12.5792 5.60032 13.4043 5.45202 14.2356 5.454C15.8639 5.454 17.0556 5.844 17.7754 6.624C18.4952 7.404 18.8963 8.598 18.8963 10.224V18.276H15.3565V10.41C15.421 9.766 15.2393 9.12145 14.8491 8.61C14.3106 8.19243 13.634 8.0032 12.9612 8.082C12.3992 8.08648 11.8444 8.21118 11.3329 8.448C10.848 8.67772 10.4066 8.99253 10.0291 9.378V18.276H6.48926Z" fill="#52575C"/>
<path d="M22.4189 18.276V8.47801H20.708V5.72401H22.4189V4.45201C22.3713 3.28103 22.7636 2.13551 23.5163 1.24801C23.9328 0.812382 24.4381 0.474885 24.9967 0.259268C25.5552 0.0436512 26.1535 -0.0448451 26.7493 7.2252e-06C27.2754 -0.00785368 27.801 0.0363545 28.3186 0.132007C28.7466 0.21364 29.1656 0.33825 29.5694 0.504007V2.96401C29.3039 2.88001 29.0561 2.80801 28.8142 2.75401C28.5482 2.69904 28.2773 2.67289 28.0059 2.67601C27.4502 2.62112 26.893 2.76543 26.4307 3.08401C26.2561 3.27254 26.1235 3.49718 26.0421 3.74259C25.9606 3.98801 25.9322 4.2484 25.9587 4.50601V5.70601H29.0856L28.9086 8.47801H25.9587V18.276H22.4189Z" fill="#52575C"/>
<path d="M51.0793 22.938C50.1346 22.9365 49.1909 22.8764 48.2534 22.758C47.4251 22.6541 46.609 22.4672 45.8168 22.2V19.548C46.6152 19.8043 47.4346 19.9871 48.2652 20.094C49.1368 20.2212 50.0159 20.2874 50.8965 20.292C51.7682 20.3201 52.6403 20.2537 53.4982 20.094C54.041 19.962 54.3065 19.728 54.3065 19.392C54.3171 19.2676 54.2892 19.1429 54.2268 19.0354C54.1644 18.9278 54.0706 18.8427 53.9584 18.792C53.4797 18.6517 52.9806 18.5968 52.4835 18.63H49.1265C46.9201 18.63 45.8168 17.8 45.8168 16.14C45.812 15.6395 45.9582 15.1494 46.2357 14.736C46.569 14.2724 47.0314 13.9213 47.5631 13.728C46.8893 13.4101 46.3253 12.8932 45.9444 12.2447C45.5634 11.5962 45.3833 10.8461 45.4274 10.092C45.4274 8.46401 45.923 7.28601 46.9142 6.55801C47.923 5.82601 49.392 5.45401 51.3271 5.45401C51.7672 5.45886 52.2065 5.49092 52.6428 5.55001C53.1206 5.61001 53.4805 5.67001 53.7224 5.72401H58.3596L58.2829 7.97401H56.3419C56.6173 8.25404 56.8312 8.59027 56.9695 8.96052C57.1078 9.33077 57.1674 9.72664 57.1442 10.122C57.1729 10.6917 57.0826 11.261 56.8792 11.7926C56.6758 12.3242 56.364 12.8059 55.9643 13.206C55.1777 13.974 53.9977 14.358 52.4245 14.358C52.1584 14.3596 51.8925 14.3456 51.628 14.316L50.8611 14.226C50.4057 14.277 49.9614 14.4027 49.5454 14.598C49.3969 14.6494 49.2669 14.7449 49.1722 14.8722C49.0776 14.9994 49.0226 15.1526 49.0145 15.312C49.0145 15.72 49.3684 15.912 50.0823 15.912H53.569C54.5996 15.8553 55.6169 16.1697 56.4422 16.8C56.7879 17.1106 57.0592 17.4975 57.2351 17.9312C57.411 18.3649 57.4869 18.8339 57.4569 19.302C57.4773 19.8737 57.3329 20.4389 57.0415 20.9283C56.7501 21.4176 56.3244 21.8095 55.8168 22.056C54.7273 22.644 53.1482 22.938 51.0793 22.938ZM51.3625 12.342C52.1275 12.4194 52.8955 12.2289 53.5395 11.802C53.7612 11.5554 53.9284 11.2635 54.0302 10.9458C54.1319 10.6282 54.1658 10.2921 54.1295 9.96001C54.1635 9.62254 54.1286 9.28158 54.0271 8.95844C53.9256 8.6353 53.7596 8.33694 53.5395 8.08201C52.9103 7.61821 52.1359 7.40477 51.3625 7.48201C50.6073 7.41581 49.8528 7.61718 49.2268 8.05201C48.9905 8.30165 48.8101 8.60039 48.6981 8.92768C48.586 9.25498 48.545 9.60307 48.5779 9.94801C48.5468 10.2733 48.5833 10.6017 48.6849 10.9117C48.7865 11.2218 48.9511 11.5067 49.1678 11.748C49.8023 12.2145 50.584 12.4261 51.3625 12.342Z" fill="#52575C"/>
<path d="M59.8584 18.276V5.72399H63.1268L63.2861 7.01999C63.9381 6.61905 64.6328 6.29496 65.3569 6.05399C66.1467 5.7694 66.9632 5.56833 67.7935 5.45399V8.15999C67.2753 8.23949 66.7613 8.34563 66.2537 8.47799C65.6991 8.61599 65.1681 8.77799 64.6667 8.95199C64.2279 9.10301 63.8017 9.28961 63.3923 9.50999V18.276H59.8584Z" fill="#52575C"/>
<path d="M72.6727 18.546C71.9254 18.5515 71.1847 18.4025 70.4957 18.108C69.8489 17.8314 69.2896 17.3788 68.8792 16.8C68.4627 16.1639 68.2561 15.4095 68.2893 14.646C68.2628 14.0791 68.365 13.5136 68.588 12.9933C68.8111 12.4731 69.1489 12.0121 69.5754 11.646C70.4367 10.902 71.7052 10.536 73.3925 10.536H77.0385V10.2C77.07 9.89407 77.0286 9.58492 76.9177 9.29874C76.8067 9.01256 76.6296 8.75779 76.4014 8.556C75.9766 8.238 75.1211 8.082 73.835 8.082C72.454 8.07904 71.0815 8.30188 69.7701 8.742V6.252C70.4504 5.9935 71.1538 5.80261 71.8704 5.682C72.7607 5.52511 73.663 5.44881 74.5665 5.454C76.4249 5.454 77.8586 5.844 78.8733 6.612C79.8881 7.38 80.4014 8.61 80.4014 10.302V18.276H77.3512L77.1683 17.142C76.6512 17.6015 76.0496 17.9523 75.3984 18.174C74.5158 18.4481 73.5951 18.5738 72.6727 18.546ZM73.6344 16.2C74.3314 16.2156 75.0236 16.0785 75.6639 15.798C76.1856 15.5739 76.6498 15.2311 77.0208 14.796V12.792H73.4515C72.0828 12.792 71.3925 13.392 71.3925 14.514C71.3925 15.636 72.1418 16.2 73.6344 16.2Z" fill="#52575C"/>
<path d="M83.2217 24V5.72401H86.2659L86.4488 6.88801C86.9765 6.43626 87.5747 6.07732 88.2187 5.82601C88.9477 5.56429 89.7172 5.43827 90.4901 5.45401C92.2954 5.45401 93.6878 5.95801 94.6671 6.95401C95.6465 7.95001 96.1656 9.60001 96.1656 11.844C96.1656 14.088 95.6406 15.786 94.5845 16.89C94.0187 17.458 93.3419 17.8988 92.598 18.1841C91.8541 18.4693 91.0596 18.5926 90.2659 18.546C89.0199 18.5847 87.7898 18.2531 86.7261 17.592V24H83.2217ZM89.3928 15.918C89.8333 15.9474 90.2746 15.8746 90.6834 15.7052C91.0922 15.5358 91.4578 15.2741 91.7527 14.94C92.2876 14.288 92.557 13.264 92.5609 11.868C92.5648 10.472 92.321 9.50401 91.8293 8.96401C91.5264 8.64612 91.157 8.40175 90.7484 8.24906C90.3398 8.09636 89.9027 8.03926 89.4695 8.08201C88.9609 8.07497 88.4561 8.1717 87.9849 8.36648C87.5137 8.56125 87.0857 8.85012 86.7261 9.21601V14.964C87.0874 15.2464 87.4843 15.4785 87.906 15.654C88.3791 15.843 88.8848 15.9328 89.3928 15.918Z" fill="#52575C"/>
<path d="M98.5898 18.276V0.425995H102.13V6.77999C102.691 6.36404 103.315 6.04198 103.976 5.82599C104.738 5.57479 105.535 5.4492 106.336 5.45399C107.97 5.45399 109.156 5.84399 109.905 6.62399C110.655 7.40399 111.026 8.598 111.026 10.224V18.276H107.487V10.41C107.549 9.7652 107.366 9.12057 106.973 8.60999C106.435 8.19243 105.758 8.00319 105.085 8.08199C104.523 8.08648 103.969 8.21118 103.457 8.44799C102.951 8.67092 102.489 8.9861 102.094 9.37799V18.276H98.5898Z" fill="#52575C"/>
<path d="M115.044 18.276V8.40001H113.197L113.51 5.75401H118.56V18.276H115.044ZM114.737 3.42001V0.600006H118.584V3.42001H114.737Z" fill="#52575C"/>
<path d="M38.708 14.808C38.2336 15.1613 37.6777 15.3844 37.0939 15.4557C36.5101 15.5269 35.9181 15.444 35.375 15.2148C34.8319 14.9857 34.356 14.6181 33.9932 14.1475C33.6304 13.6768 33.393 13.1191 33.3039 12.528H30.2773C30.3707 13.7285 30.7884 14.8794 31.4844 15.8537C32.1804 16.8279 33.1276 17.5876 34.2214 18.0489C35.3152 18.5101 36.5131 18.6549 37.6828 18.4674C38.8525 18.2798 39.9484 17.7671 40.8496 16.986L38.708 14.808Z" fill="#18D4FF"/>
<path d="M33.304 11.472C33.4147 10.7405 33.7518 10.064 34.2664 9.54075C34.7809 9.01744 35.4461 8.67459 36.1653 8.56199V5.48399C34.6411 5.60748 33.21 6.27928 32.1288 7.37886C31.0476 8.47845 30.387 9.93386 30.2656 11.484L33.304 11.472Z" fill="#18D4FF"/>
<path d="M37.209 8.56201C37.7906 8.65195 38.3395 8.8931 38.8025 9.26213C39.2655 9.63115 39.627 10.1155 39.8519 10.6683C40.0768 11.2212 40.1575 11.8237 40.0862 12.4175C40.0149 13.0114 39.7941 13.5765 39.445 14.058L41.5866 16.236C42.3545 15.3199 42.8586 14.2058 43.0433 13.0167C43.2279 11.8277 43.086 10.6098 42.6332 9.49757C42.1804 8.38533 41.4342 7.42193 40.477 6.7137C39.5199 6.00546 38.3889 5.57991 37.209 5.48401V8.56201Z" fill="#18D4FF"/>
<path d="M127.434 15.48C126.872 15.4793 126.318 15.3375 125.822 15.0672C125.326 14.7969 124.903 14.4064 124.591 13.9304C124.279 13.4543 124.088 12.9073 124.033 12.3379C123.978 11.7685 124.063 11.1941 124.278 10.6657C124.494 10.1373 124.834 9.67112 125.27 9.30845C125.705 8.94579 126.221 8.69782 126.773 8.58651C127.325 8.4752 127.895 8.50398 128.433 8.67029C128.972 8.83661 129.461 9.13533 129.859 9.54001L131.989 7.37401C131.089 6.45777 129.942 5.83356 128.693 5.58036C127.444 5.32715 126.15 5.45634 124.973 5.95156C123.797 6.44679 122.791 7.2858 122.083 8.36245C121.376 9.4391 120.998 10.705 120.998 12C120.998 13.295 121.376 14.5609 122.083 15.6376C122.791 16.7142 123.797 17.5532 124.973 18.0485C126.15 18.5437 127.444 18.6729 128.693 18.4197C129.942 18.1665 131.089 17.5423 131.989 16.626L129.859 14.46C129.541 14.7842 129.163 15.0412 128.747 15.2162C128.33 15.3913 127.884 15.4809 127.434 15.48Z" fill="#52575C"/>
</g>
<defs>
<clipPath id="clip0_4694_16153">
<rect width="132" height="24" fill="white"/>
</clipPath>
</defs>
</svg>
