<svg width="95" height="25" viewBox="0 0 95 25" fill="none" xmlns="http://www.w3.org/2000/svg">
<path d="M26.9631 6.22632H35.1536V8.42448H29.2218V11.0028H34.683V13.1996H29.2218V16.066H35.3416V18.2628H26.9631V6.22632Z" fill="#333333"/>
<path d="M36.9438 9.4719H38.5451L38.9211 10.3322C39.1383 10.1515 39.3715 9.99159 39.6179 9.85471C40.1539 9.55155 40.7555 9.38752 41.3691 9.3772C43.4226 9.3772 44.853 10.8097 44.853 13.1026V18.2605H42.6877V13.3894C42.6877 12.2423 41.9528 11.478 40.8984 11.478C39.844 11.478 39.1091 12.2423 39.1091 13.3894V18.2605H36.9438V9.4719Z" fill="#333333"/>
<path d="M47.0176 11.4777H45.7029V9.66372H46.2669C46.9637 9.66372 47.3029 9.31959 47.3029 8.61265V7.37085H49.1868V9.47164H51.0694V11.4724H49.1842V15.1031C49.1842 15.8674 49.6548 16.3449 50.4082 16.3449C50.5472 16.3471 50.686 16.3341 50.8223 16.3062L50.9721 16.2489V18.1642C50.8758 18.2081 50.7748 18.2404 50.6711 18.2603C50.4319 18.3253 50.1851 18.3576 49.9375 18.3563C48.2284 18.3563 47.0176 17.1145 47.0176 15.2031V11.4777Z" fill="#333333"/>
<path d="M52.3854 9.47185H53.9854L54.3614 10.4282C54.5199 10.2319 54.7038 10.0583 54.9083 9.91201C55.3417 9.56285 55.8798 9.37459 56.4333 9.37848C56.5916 9.38292 56.7491 9.40212 56.904 9.43583L57.092 9.47318V11.766L56.8856 11.7274C56.7054 11.694 56.523 11.6748 56.34 11.67C55.2882 11.67 54.5507 12.4343 54.5507 13.5814V18.2618H52.3854V9.47185Z" fill="#333333"/>
<path d="M64.0595 17.4016C63.8557 17.5814 63.6356 17.7412 63.4022 17.8791C62.8567 18.1932 62.24 18.3577 61.6129 18.3566C59.4476 18.3566 57.5649 16.4652 57.5649 13.8669C57.5649 11.2686 59.4476 9.3772 61.6129 9.3772C62.2389 9.3849 62.8534 9.5489 63.4022 9.85471C63.6362 9.99162 63.8564 10.1516 64.0595 10.3322L64.4368 9.4719H66.0368V18.2605H64.4368L64.0595 17.4016ZM64.0595 13.8669C64.0595 12.4143 63.1182 11.478 61.8942 11.478C60.6702 11.478 59.7289 12.4117 59.7289 13.8669C59.7289 15.3221 60.6702 16.2545 61.8942 16.2545C63.1182 16.2545 64.0595 15.3181 64.0595 13.8669Z" fill="#333333"/>
<path d="M73.663 17.4012C73.4592 17.581 73.2391 17.7409 73.0057 17.8787C72.4602 18.1928 71.8435 18.3574 71.2164 18.3562C69.0511 18.3562 67.1685 16.4648 67.1685 13.8665C67.1685 11.2682 69.0511 9.37684 71.2164 9.37684C71.7959 9.38412 72.365 9.53475 72.8742 9.81567C73.0878 9.93564 73.2895 10.0764 73.4763 10.2358V6.22632H75.6416V18.2628H74.0416L73.663 17.4012ZM73.663 13.8665C73.663 12.414 72.7217 11.4776 71.4977 11.4776C70.2737 11.4776 69.3324 12.4113 69.3324 13.8665C69.3324 15.3217 70.2737 16.2541 71.4977 16.2541C72.7217 16.2541 73.663 15.3177 73.663 13.8665Z" fill="#333333"/>
<path d="M84.9619 15.5862C84.5109 16.904 83.0608 18.3566 81.1019 18.3566C78.7671 18.3566 76.7714 16.3558 76.7714 13.8669C76.7714 11.378 78.7671 9.3772 81.1019 9.3772C83.3619 9.3772 85.2445 11.1912 85.2445 13.8669C85.2374 14.0586 85.2185 14.2497 85.188 14.4391L85.1512 14.7259H79.1247C79.3324 15.5862 79.9726 16.2545 81.0967 16.2545C81.527 16.2691 81.9523 16.1565 82.3207 15.9303C82.4671 15.8413 82.5952 15.7244 82.698 15.5862H84.9619ZM83.1739 13.1973C82.9662 12.2236 82.2313 11.478 81.1019 11.478C79.9726 11.478 79.2377 12.2236 79.03 13.1973H83.1739Z" fill="#333333"/>
<path d="M68.8809 21.2166H69.3607V22.4837C69.4336 22.381 69.5309 22.2987 69.6435 22.2444C69.7561 22.19 69.8804 22.1655 70.0049 22.1729C70.6189 22.1729 70.9515 22.6464 70.9515 23.2573C70.9515 23.8682 70.5847 24.3577 69.9878 24.3577C69.8634 24.3646 69.7394 24.3379 69.6286 24.2803C69.5177 24.2226 69.4239 24.1361 69.3568 24.0296V24.307H68.8809V21.2166ZM69.9076 22.6117C69.596 22.6117 69.3568 22.8465 69.3568 23.2613C69.3568 23.6761 69.596 23.9176 69.9076 23.9176C70.2192 23.9176 70.4585 23.6708 70.4585 23.2613C70.4585 22.8518 70.231 22.6117 69.9076 22.6117Z" fill="#91131C"/>
<path d="M71.8175 24.0587L70.9419 22.2327H71.4928L72.0817 23.5478L72.6339 22.2327H73.1506L71.8464 25.1524H71.3205L71.8175 24.0587Z" fill="#91131C"/>
<path d="M74.3842 21.2803H75.436C76.2471 21.2803 76.8821 21.8271 76.8821 22.7995C76.8821 23.7719 76.234 24.3067 75.4267 24.3067H74.375L74.3842 21.2803ZM76.3654 22.7995C76.3654 22.0912 75.9408 21.7498 75.4228 21.7498H74.889V23.8332H75.4149C75.9355 23.8332 76.3654 23.4998 76.3654 22.7995Z" fill="#91131C"/>
<path d="M77.8202 22.0139V24.3067H77.3153V21.2803H77.9595L79.3136 23.4278V21.2803H79.8185V24.3067H79.2926L77.8202 22.0139Z" fill="#91131C"/>
<path d="M81.3508 21.6687C81.0471 21.6687 80.8381 21.8741 80.8381 22.1049C80.8386 22.2018 80.8745 22.2952 80.9388 22.3668C81.0032 22.4385 81.0914 22.4835 81.1865 22.493L81.6151 22.5824C82.1409 22.6891 82.4236 23.0266 82.4236 23.4534C82.4236 23.9229 82.0489 24.3711 81.3719 24.3711C80.6146 24.3711 80.2649 23.8762 80.2189 23.4374L80.6895 23.304C80.701 23.4761 80.7793 23.6364 80.9072 23.75C81.0351 23.8635 81.2023 23.9209 81.3719 23.9096C81.7294 23.9096 81.9135 23.7268 81.9135 23.4921C81.9135 23.2947 81.7715 23.1373 81.5191 23.0813L81.0997 22.9919C80.6448 22.8985 80.3424 22.5917 80.3424 22.1422C80.3424 21.6354 80.8 21.2166 81.3561 21.2166C82.0581 21.2166 82.3316 21.6514 82.3986 21.9888L81.9451 22.1342C81.9224 21.9948 81.8485 21.8692 81.7382 21.7829C81.6279 21.6965 81.4895 21.6557 81.3508 21.6687V21.6687Z" fill="#91131C"/>
<path d="M82.8436 21.2803H84.6842V21.7578H83.3524V22.5581H84.5632V23.0329H83.3524V23.8332H84.6895V24.3121H82.8489L82.8436 21.2803Z" fill="#91131C"/>
<path d="M20.9746 6.89345V17.5441C20.974 17.7921 20.9101 18.0356 20.7892 18.2511C20.8037 18.2164 21.1179 17.4574 19.9163 16.7412L19.8939 16.7278L13.0483 12.717C12.9621 12.6664 12.8904 12.5937 12.8407 12.5061C12.7909 12.4185 12.7646 12.3192 12.7646 12.2181C12.7646 12.117 12.7909 12.0177 12.8407 11.9302C12.8904 11.8426 12.9621 11.7699 13.0483 11.7193L19.8939 7.70843C21.1232 6.98949 20.805 6.21987 20.7905 6.18652C20.911 6.40212 20.9744 6.64565 20.9746 6.89345V6.89345Z" fill="#91131C"/>
<path d="M7.92494 11.7219C8.0112 11.7725 8.08282 11.8453 8.13262 11.9328C8.18241 12.0204 8.20862 12.1197 8.20862 12.2208C8.20862 12.3219 8.18241 12.4212 8.13262 12.5088C8.08282 12.5963 8.0112 12.6691 7.92494 12.7196L1.07804 16.7292C1.05438 16.7438 1.0294 16.7572 1.00705 16.7732C-0.0815061 17.4401 0.144616 18.1484 0.181427 18.2404C0.0627319 18.0276 0.000236229 17.7873 1.56786e-08 17.5428V6.89345C-3.65462e-05 6.64544 0.0638732 6.40173 0.185375 6.18652C0.170914 6.21987 -0.135415 6.95881 1.00836 7.66441L1.07936 7.7071L7.92494 11.7219Z" fill="#91131C"/>
<path d="M20.1677 5.9012C20.1693 5.91359 20.1693 5.92614 20.1677 5.93854C20.1388 6.23866 19.9521 6.67882 19.229 7.10165L15.7674 9.12774L10.489 6.03591L5.21049 9.12774L1.74892 7.10165C1.02584 6.67882 0.839156 6.23866 0.811548 5.93854C0.809237 5.9262 0.809237 5.91353 0.811548 5.9012C0.812575 5.80979 0.837452 5.72029 0.883637 5.64181C0.929822 5.56332 0.995667 5.49865 1.07448 5.45436L1.09027 5.44369C2.46543 4.64339 9.64361 0.43247 9.64361 0.43247L9.79875 0.343106C10.0113 0.218152 10.2525 0.152344 10.4982 0.152344C10.7438 0.152344 10.9851 0.218152 11.1976 0.343106L11.3527 0.43247L19.9061 5.44369C19.9122 5.44645 19.918 5.45004 19.9232 5.45436C19.9985 5.50109 20.0606 5.56681 20.1034 5.64511C20.1463 5.72342 20.1684 5.81164 20.1677 5.9012V5.9012Z" fill="#91131C"/>
<path d="M20.168 18.5382C20.1668 18.6296 20.1419 18.719 20.0957 18.7975C20.0495 18.8759 19.9838 18.9406 19.905 18.985C19.8998 18.9894 19.8941 18.9929 19.8879 18.9957L11.3346 24.0069L11.1795 24.0976C10.9666 24.2217 10.7255 24.2869 10.48 24.2869C10.2346 24.2869 9.99345 24.2217 9.78063 24.0976L9.62549 24.0069C9.62549 24.0069 2.44731 19.8 1.07215 18.9957L1.05637 18.985C0.977555 18.9408 0.911702 18.8761 0.865517 18.7976C0.819332 18.7191 0.794463 18.6296 0.793435 18.5382C0.791186 18.5259 0.791186 18.5132 0.793435 18.5009C0.821044 18.2007 1.00773 17.7606 1.73081 17.3377L5.19237 15.313L10.4708 18.4048L15.7493 15.313L19.2109 17.3377C19.934 17.7606 20.1206 18.2007 20.1496 18.5009C20.1574 18.5124 20.1636 18.525 20.168 18.5382V18.5382Z" fill="#91131C"/>
<path d="M91.9438 9.1748L90.9355 10.6047L89.8114 12.2026H87.8131L89.9271 9.17348L87.8131 6.16968H89.8469L90.9355 7.72893L91.9438 9.1748Z" fill="white"/>
<path d="M94.058 6.16968L91.944 9.1748L90.9357 7.72893L92.0242 6.16968H94.058Z" fill="#91131C"/>
<path d="M94.058 12.2021H92.061L90.9357 10.6042L91.944 9.17432L94.058 12.2021Z" fill="#91131C"/>
<path d="M91.9312 8.89414C91.9891 8.97695 92.0203 9.07601 92.0203 9.17758C92.0203 9.27915 91.9891 9.37821 91.9312 9.46102L91.1226 10.6081L89.9986 12.2087H88.0002L89.9158 9.46235C89.9737 9.37954 90.0049 9.28049 90.0049 9.17891C90.0049 9.07734 89.9737 8.97829 89.9158 8.89547L88.0016 6.17578H90.0341L91.1239 7.73504L91.9312 8.89414Z" fill="white"/>
<path d="M91.3723 8.89414C91.4307 8.9768 91.462 9.07591 91.462 9.17758C91.462 9.27924 91.4307 9.37836 91.3723 9.46102L90.5638 10.6081L89.4397 12.2087H87.4414L89.3569 9.46235C89.4153 9.37969 89.4466 9.28058 89.4466 9.17891C89.4466 9.07725 89.4153 8.97813 89.3569 8.89547L87.4427 6.17578H89.4765L90.5651 7.73504L91.3723 8.89414Z" fill="#333333"/>
</svg>
